<svg width="757" height="721" viewBox="0 0 757 721" fill="none" xmlns="http://www.w3.org/2000/svg">
<g clip-path="url(#clip0_103_207)">
<path d="M412.338 684.135C602.69 684.135 757 666.9 757 645.64C757 624.38 602.69 607.146 412.338 607.146C221.986 607.146 67.6758 624.38 67.6758 645.64C67.6758 666.9 221.986 684.135 412.338 684.135Z" fill="#3F3D56"/>
<path d="M583.27 603.046L589.214 621.353C589.214 621.353 617.842 650.917 607.488 658.931C597.134 666.944 573.904 624.701 573.904 624.701L569.623 604.033L583.27 603.046Z" fill="#FFB8B8"/>
<path d="M528.348 461.348L537.013 458.461C537.013 458.461 550.491 462.31 552.417 475.783C554.342 489.256 568.784 557.584 568.784 557.584C568.784 557.584 574.56 560.471 570.709 565.283C566.858 570.095 589.964 613.401 589.964 613.401L571.672 622.062C571.672 622.062 535.088 583.568 535.088 579.718C535.088 575.869 536.05 572.019 536.05 568.17C536.05 564.321 535.088 564.321 536.05 561.433C536.693 558.918 537.016 556.331 537.013 553.735L530.274 538.337L528.348 461.348Z" fill="#A3CEF5"/>
<path d="M87.0491 527.362C135.125 527.362 174.098 447.872 174.098 349.817C174.098 251.761 135.125 172.272 87.0491 172.272C38.9732 172.272 0 251.761 0 349.817C0 447.872 38.9732 527.362 87.0491 527.362Z" fill="#8FBE2A"/>
<path d="M86.2499 351.659C90.5921 274.374 99.341 222.171 99.4289 221.653L97.5307 221.332C97.4428 221.85 88.6784 274.137 84.3292 351.521C80.3156 422.942 79.3472 530.97 97.5302 640.024L99.4294 639.708C81.2773 530.839 82.2434 422.974 86.2499 351.659Z" fill="#3F3D56"/>
<path d="M164.851 313.811L86.1448 355.92L87.0534 357.617L165.76 315.508L164.851 313.811Z" fill="#3F3D56"/>
<path d="M3.96534 334.916L3.05713 336.613L81.7745 378.701L82.6827 377.004L3.96534 334.916Z" fill="#3F3D56"/>
<path d="M293.218 485.913C359.006 485.913 412.338 377.138 412.338 242.957C412.338 108.775 359.006 0 293.218 0C227.43 0 174.098 108.775 174.098 242.957C174.098 377.138 227.43 485.913 293.218 485.913Z" fill="#E6E6E6"/>
<path d="M291.771 245.446C297.714 139.671 309.689 68.2246 309.809 67.515L307.911 67.1936C307.791 67.9036 295.8 139.434 289.851 245.308C284.358 343.024 283.034 490.824 307.91 640.024L309.81 639.708C284.964 490.692 286.287 343.057 291.771 245.446Z" fill="#3F3D56"/>
<path d="M399.851 193.998L292.148 251.621L293.057 253.318L400.76 195.695L399.851 193.998Z" fill="#3F3D56"/>
<path d="M179.357 222.878L178.449 224.576L286.168 282.17L287.076 280.473L179.357 222.878Z" fill="#3F3D56"/>
<path d="M193.985 580.587C218.565 580.587 238.491 539.946 238.491 489.812C238.491 439.679 218.565 399.037 193.985 399.037C169.404 399.037 149.478 439.679 149.478 489.812C149.478 539.946 169.404 580.587 193.985 580.587Z" fill="#E6E6E6"/>
<path d="M193.945 493.723L194.209 494.216L234.449 472.686L233.541 470.988L194.029 492.128C196.216 451.9 200.688 424.895 200.778 424.363L198.88 424.042C198.781 424.623 193.468 456.692 191.582 503.095L151.731 481.773L150.822 483.471L191.063 505.001L191.543 504.103C190.034 542.403 190.88 590.292 198.879 638.267L200.778 637.951C192.057 585.644 191.865 533.435 193.945 493.723Z" fill="#3F3D56"/>
<path d="M540.129 369.994C524.654 343.63 494.037 342.401 494.037 342.401C494.037 342.401 464.203 338.555 445.064 378.708C427.226 416.134 402.606 452.27 441.101 461.031L448.054 439.211L452.36 462.655C457.841 463.053 463.339 463.148 468.831 462.939C510.055 461.597 549.315 463.332 548.051 448.417C546.371 428.589 555.019 395.362 540.129 369.994Z" fill="#2F2E41"/>
<path d="M432.262 581.171C431.83 583.927 431.203 586.648 430.385 589.316C429.465 591.925 428.043 594.339 427.202 596.976C424.519 605.381 428.238 614.752 434.178 621.24C439.315 626.835 445.967 630.817 453.325 632.703C458.684 634.062 464.256 634.258 469.779 634.447C485.072 634.969 500.758 635.437 515.249 630.482C519.829 628.877 524.252 626.851 528.459 624.431C529.79 623.791 530.962 622.861 531.887 621.71C532.992 620.123 533.133 618.066 533.124 616.127C533.091 609.59 531.777 603.087 532.089 596.558C532.262 592.942 532.933 589.328 532.603 585.723C532.158 581.643 530.464 577.799 527.752 574.717C525.041 571.635 521.443 569.466 517.451 568.504C513.341 567.614 509.077 568.099 504.892 568.505C494.029 569.558 483.119 570.049 472.205 569.979C461.055 569.907 449.973 568.191 438.878 568.012C435.597 567.959 435.663 568.978 434.618 572.18C433.656 575.128 432.869 578.13 432.262 581.171Z" fill="#2F2E41"/>
<path d="M388.659 575.858C385.661 575.098 382.571 574.767 379.481 574.874C376.232 575.079 373.063 575.966 370.18 577.477C367.297 578.988 364.765 581.09 362.749 583.645C360.753 586.238 359.319 589.218 358.539 592.396C357.758 595.573 357.647 598.878 358.214 602.1C358.962 605.591 360.186 608.962 361.851 612.12C364.285 617.101 367.204 622.069 371.71 625.261C374.423 627.014 377.346 628.418 380.411 629.437L404.143 638.451C407.634 639.777 411.126 641.103 414.652 642.333C432.355 648.504 450.826 652.206 469.541 653.335C475.239 653.677 481.024 653.772 486.583 652.464C487.942 652.284 489.185 651.607 490.073 650.563C490.526 649.767 490.792 648.879 490.853 647.966L492.313 637.658C492.64 636.223 492.598 634.728 492.189 633.313C491.52 631.581 489.843 630.491 488.245 629.565C472.642 620.53 454.425 615.545 441.293 603.145C438.201 600.226 435.614 595.598 431.858 593.615C427.598 591.367 422.582 590.083 418.179 588.011C408.554 583.481 399.091 578.276 388.659 575.858Z" fill="#2F2E41"/>
<path opacity="0.1" d="M412.351 589.754C420.74 592.404 456.155 610.765 462.225 617.175C461.411 617.471 433.805 601.872 432.976 601.621C425.446 599.342 417.875 597.049 410.724 593.714C409.285 593.044 401.378 589.891 401.736 588.06C402.14 585.995 410.862 589.284 412.351 589.754Z" fill="black"/>
<path d="M517 658.681C517.477 658.716 517.949 658.575 518.33 658.286C518.497 658.069 518.62 657.821 518.691 657.556C518.763 657.291 518.781 657.015 518.745 656.743L518.706 642.701C514.701 640.777 510.221 640.16 505.824 639.567L485.307 636.802C485.778 636.866 482.099 645.712 482.663 646.893C483.657 648.975 491.256 650.82 493.401 651.802C500.856 655.219 508.603 658.975 517 658.681Z" fill="#FFB8B8"/>
<path d="M452.627 642.652C448.754 643.274 444.43 643.824 441.921 646.865C438.74 650.72 440.094 656.468 441.612 661.245C441.837 662.209 442.289 663.107 442.931 663.861C443.967 664.891 445.554 665.042 447.006 665.135C450.539 665.361 454.299 665.537 457.386 663.79C458.784 662.858 460.13 661.849 461.418 660.768C463.691 659.242 466.194 658.089 468.831 657.351C473.672 655.815 478.658 654.779 483.711 654.259C485.702 654.168 487.673 653.817 489.573 653.217C490.526 652.906 491.394 652.38 492.11 651.679C492.826 650.978 493.37 650.122 493.702 649.176C494.417 646.624 492.946 644.022 491.535 641.784C489.777 638.996 487.915 636.061 485.295 634.008C481.472 631.014 479.581 633.313 475.73 635.229C468.448 638.854 460.659 641.356 452.627 642.652Z" fill="#FFB8B8"/>
<path d="M442.504 646.17L417.907 638.84C414.958 637.805 411.875 637.202 408.753 637.052C405.634 637.054 402.37 638.085 400.347 640.479C398.439 642.736 397.893 645.821 397.418 648.747L396.401 655.007C395.722 658.164 395.53 661.405 395.831 664.62C396.297 667.809 397.911 670.995 400.718 672.539C404.122 674.411 408.293 673.497 412.092 672.713C419.764 671.132 427.569 670.288 435.402 670.193C438.346 670.158 441.434 670.195 444.036 668.805C447.128 667.152 448.979 663.658 449.297 660.144C449.781 654.797 448.013 647.812 442.504 646.17Z" fill="#2F2E41"/>
<path d="M526.669 639.782C529.858 639.219 532.672 637.392 535.727 636.313C540.028 634.795 544.689 634.795 549.245 634.812C550.918 634.818 552.699 634.856 554.092 635.79C556.099 637.138 556.613 639.834 556.955 642.241L559.014 656.761C559.401 659.492 559.786 662.296 559.182 664.987C558.578 667.678 556.759 670.272 554.11 670.967C550.894 671.81 547.741 669.738 544.704 668.377C537.113 664.976 528.29 665.845 520.375 663.303C518.906 662.831 517.333 662.11 516.734 660.678C516.463 659.871 516.367 659.015 516.451 658.168C516.586 653.501 515.61 647.128 517.003 642.667C518.257 638.656 523.11 639.782 526.669 639.782Z" fill="#2F2E41"/>
<path d="M578.722 570.013C583.636 568.771 588.732 568.42 593.769 568.977C597.792 569.424 601.937 570.552 604.874 573.36C608.448 576.776 609.597 582.061 609.693 587.026C609.854 596.903 606.603 606.534 600.488 614.294C598.999 616.25 597.225 617.971 595.226 619.402C593.074 620.76 590.777 621.875 588.38 622.729L535.233 643.864C521.251 649.424 507.22 655.001 492.636 658.667C492.237 658.86 491.803 658.971 491.36 658.994C490.916 659.016 490.473 658.949 490.056 658.797C489.64 658.645 489.258 658.41 488.934 658.107C488.609 657.804 488.349 657.439 488.169 657.034C483.51 650.321 479.603 643.117 476.521 635.55C476.382 635.308 476.296 635.04 476.271 634.762C476.245 634.484 476.279 634.204 476.371 633.941C476.566 633.649 476.837 633.416 477.156 633.267L514.747 611.491C517.506 610.039 520.075 608.254 522.398 606.175C524.024 604.585 525.354 602.718 526.326 600.661C527.105 599.02 527.178 595.148 528.173 593.935C529.148 592.748 532.481 592.653 534.021 592.186C536.193 591.515 538.319 590.704 540.387 589.759C548.796 585.966 556.284 580.456 564.345 576.014C568.862 573.41 573.694 571.393 578.722 570.013Z" fill="#2F2E41"/>
<path opacity="0.1" d="M557.412 586.277C550.954 591.167 542.591 595.663 536.19 600.682C534.006 602.396 497.589 623.038 497.074 625.78C503.046 626.795 541.086 599.963 546.528 597.286C551.971 594.608 556.795 590.833 561.576 587.085C562.794 586.13 567.958 583.259 564.46 582.192C562.49 581.591 558.866 585.299 557.412 586.277Z" fill="black"/>
<path d="M492.727 436.326C512.932 436.326 529.311 419.953 529.311 399.756C529.311 379.559 512.932 363.187 492.727 363.187C472.522 363.187 456.143 379.559 456.143 399.756C456.143 419.953 472.522 436.326 492.727 436.326Z" fill="#FFB8B8"/>
<path d="M508.131 430.552C508.131 430.552 502.354 444.988 512.945 450.762C523.535 456.536 480.211 502.729 480.211 502.729L460.956 446.912C460.956 446.912 477.323 441.138 474.435 425.74L508.131 430.552Z" fill="#FFB8B8"/>
<path d="M484.062 470.009L507.378 444.28L538.939 460.385L534.125 573.944L526.423 582.606C526.423 582.606 493.69 611.476 443.627 587.417C443.627 587.417 426.298 572.982 427.26 550.848C428.223 528.713 425.335 525.826 425.335 525.826L424.372 447.875L471.904 438.551L484.062 470.009Z" fill="#A3CEF5"/>
<path d="M377.152 592.46L371.208 610.767C371.208 610.767 342.58 640.331 352.934 648.345C363.288 656.358 386.518 614.115 386.518 614.115L390.8 593.447L377.152 592.46Z" fill="#FFB8B8"/>
<path d="M432.074 450.762L423.409 447.875C423.409 447.875 409.931 451.724 408.005 465.197C406.08 478.67 391.639 546.998 391.639 546.998C391.639 546.998 385.862 549.885 389.713 554.697C393.564 559.509 370.458 602.815 370.458 602.815L388.751 611.476C388.751 611.476 425.335 572.982 425.335 569.132C425.335 565.283 424.372 561.434 424.372 557.584C424.372 553.735 425.335 553.735 424.372 550.848C423.729 548.332 423.406 545.745 423.409 543.149L430.149 527.751L432.074 450.762Z" fill="#A3CEF5"/>
<path d="M533.288 367.453L503.039 351.478L461.269 358.013L452.626 396.499L474.14 395.664L480.149 381.525V395.43L490.076 395.045L495.838 372.536L499.439 396.499L534.728 395.772L533.288 367.453Z" fill="#2F2E41"/>
<path d="M318.865 615.028V670.537H149.249C149.25 655.815 155.101 641.696 165.515 631.287C175.928 620.877 190.053 615.028 204.78 615.028C220.685 610.071 239.073 608.493 259.021 609.013C277.843 609.494 298.051 611.852 318.865 615.028Z" fill="#FF6584"/>
<path d="M294.635 658.427H374.396C375.735 658.427 377.019 658.959 377.965 659.906C378.912 660.852 379.444 662.135 379.444 663.474C379.444 664.812 378.912 666.095 377.965 667.042C377.019 667.988 375.735 668.52 374.396 668.52H294.635V658.427Z" fill="#3F3D56"/>
<path d="M308.449 567.523L329.828 541.618C330.321 540.591 331.115 539.738 332.104 539.172C333.094 538.607 334.232 538.356 335.368 538.454C336.504 538.551 337.583 538.992 338.462 539.717C339.341 540.442 339.978 541.418 340.288 542.514L348.719 572.269L308.449 567.523Z" fill="#3F3D56"/>
<path d="M282.52 580.717L290.597 548.119C290.597 546.98 290.944 545.868 291.592 544.93C292.24 543.993 293.158 543.275 294.224 542.872C295.29 542.469 296.453 542.4 297.56 542.675C298.666 542.949 299.662 543.553 300.417 544.408L320.885 567.597L282.52 580.717Z" fill="#FF6584"/>
<path d="M149.248 670.538H165.402V704.852C165.402 706.973 164.985 709.073 164.173 711.032C163.361 712.991 162.171 714.771 160.671 716.27C159.171 717.77 157.39 718.959 155.43 719.771C153.47 720.582 151.37 721 149.248 721V670.538Z" fill="#FF6584"/>
<path d="M291.606 660.446H371.367C372.706 660.446 373.99 660.978 374.937 661.924C375.883 662.87 376.415 664.154 376.415 665.492C376.415 666.83 375.883 668.114 374.937 669.06C373.99 670.007 372.706 670.538 371.367 670.538H291.606V660.446Z" fill="#FF6584"/>
<path opacity="0.2" d="M318.865 615.028V670.229C310.671 671.099 302.386 670.102 294.632 667.312C286.879 664.522 279.859 660.012 274.1 654.12C268.34 648.229 263.991 641.11 261.38 633.297C258.768 625.484 257.962 617.182 259.021 609.013C277.843 609.494 298.051 611.852 318.865 615.028Z" fill="black"/>
<path d="M318.866 670.538C348.977 670.538 373.386 646.139 373.386 616.04C373.386 585.941 348.977 561.541 318.866 561.541C288.756 561.541 264.346 585.941 264.346 616.04C264.346 646.139 288.756 670.538 318.866 670.538Z" fill="#FF6584"/>
<path d="M371.367 634.206C374.713 634.206 377.425 627.88 377.425 620.077C377.425 612.273 374.713 605.948 371.367 605.948C368.021 605.948 365.309 612.273 365.309 620.077C365.309 627.88 368.021 634.206 371.367 634.206Z" fill="#3F3D56"/>
<path d="M356.727 608.975C357.564 608.975 358.242 607.394 358.242 605.443C358.242 603.492 357.564 601.911 356.727 601.911C355.891 601.911 355.213 603.492 355.213 605.443C355.213 607.394 355.891 608.975 356.727 608.975Z" fill="#3F3D56"/>
<path d="M367.833 601.911C368.67 601.911 369.348 600.329 369.348 598.378C369.348 596.427 368.67 594.846 367.833 594.846C366.997 594.846 366.319 596.427 366.319 598.378C366.319 600.329 366.997 601.911 367.833 601.911Z" fill="#3F3D56"/>
<path d="M314.292 560.935C314.292 560.935 311.262 555.666 311.262 552.451L314.292 560.935Z" fill="#3F3D56"/>
<path d="M315.625 557.527C315.625 557.527 317.276 551.677 319.576 549.43L315.625 557.527Z" fill="#3F3D56"/>
</g>
<defs>
<clipPath id="clip0_103_207">
<rect width="757" height="721" fill="white"/>
</clipPath>
</defs>
</svg>
